<mxfile host="app.diagrams.net" modified="2023-03-03T18:48:40.217Z" agent="5.0 (Windows NT 10.0; Win64; x64) AppleWebKit/537.36 (KHTML, like Gecko) Chrome/110.0.0.0 Safari/537.36" etag="Xu3_cClLHi7fQw-baMUj" version="21.0.2" type="github">
  <diagram id="R2lEEEUBdFMjLlhIrx00" name="Page-1">
    <mxGraphModel dx="1434" dy="764" grid="1" gridSize="10" guides="1" tooltips="1" connect="1" arrows="1" fold="1" page="1" pageScale="1" pageWidth="850" pageHeight="1100" math="0" shadow="0" extFonts="Permanent Marker^https://fonts.googleapis.com/css?family=Permanent+Marker">
      <root>
        <mxCell id="0" />
        <mxCell id="1" parent="0" />
        <mxCell id="TWPjQ4wS-LxRXgJV8Hlp-40" value="" style="edgeStyle=orthogonalEdgeStyle;fontSize=12;html=1;endArrow=ERmany;rounded=0;exitX=1;exitY=0.25;exitDx=0;exitDy=0;entryX=0;entryY=0.392;entryDx=0;entryDy=0;entryPerimeter=0;" parent="1" source="aQkYtlhUBW1I7DdhKlqn-8" target="aQkYtlhUBW1I7DdhKlqn-5" edge="1">
          <mxGeometry width="100" height="100" relative="1" as="geometry">
            <mxPoint x="750" y="105" as="sourcePoint" />
            <mxPoint x="910" y="90" as="targetPoint" />
            <Array as="points" />
          </mxGeometry>
        </mxCell>
        <mxCell id="TWPjQ4wS-LxRXgJV8Hlp-68" value="" style="edgeStyle=orthogonalEdgeStyle;fontSize=12;html=1;endArrow=ERoneToMany;rounded=0;entryX=-0.006;entryY=0.367;entryDx=0;entryDy=0;exitX=0;exitY=0.75;exitDx=0;exitDy=0;entryPerimeter=0;" parent="1" source="aQkYtlhUBW1I7DdhKlqn-14" target="TWPjQ4wS-LxRXgJV8Hlp-79" edge="1">
          <mxGeometry width="100" height="100" relative="1" as="geometry">
            <mxPoint x="100" y="135" as="sourcePoint" />
            <mxPoint x="60" y="345" as="targetPoint" />
            <Array as="points">
              <mxPoint x="30" y="135" />
              <mxPoint x="30" y="504" />
            </Array>
          </mxGeometry>
        </mxCell>
        <mxCell id="TWPjQ4wS-LxRXgJV8Hlp-79" value="Жанр" style="swimlane;childLayout=stackLayout;horizontal=1;startSize=50;horizontalStack=0;rounded=1;fontSize=14;fontStyle=0;strokeWidth=2;resizeParent=0;resizeLast=1;shadow=0;dashed=0;align=center;arcSize=4;whiteSpace=wrap;html=1;" parent="1" vertex="1">
          <mxGeometry x="140" y="460" width="160" height="120" as="geometry" />
        </mxCell>
        <mxCell id="TWPjQ4wS-LxRXgJV8Hlp-80" value="наименование" style="align=left;strokeColor=none;fillColor=none;spacingLeft=4;fontSize=12;verticalAlign=top;resizable=0;rotatable=0;part=1;html=1;" parent="TWPjQ4wS-LxRXgJV8Hlp-79" vertex="1">
          <mxGeometry y="50" width="160" height="70" as="geometry" />
        </mxCell>
        <mxCell id="TWPjQ4wS-LxRXgJV8Hlp-85" value="Сценарист" style="swimlane;childLayout=stackLayout;horizontal=1;startSize=50;horizontalStack=0;rounded=1;fontSize=14;fontStyle=0;strokeWidth=2;resizeParent=0;resizeLast=1;shadow=0;dashed=0;align=center;arcSize=4;whiteSpace=wrap;html=1;" parent="1" vertex="1">
          <mxGeometry x="150" y="260" width="160" height="120" as="geometry" />
        </mxCell>
        <mxCell id="TWPjQ4wS-LxRXgJV8Hlp-86" value="ФИО сценариста" style="align=left;strokeColor=none;fillColor=none;spacingLeft=4;fontSize=12;verticalAlign=top;resizable=0;rotatable=0;part=1;html=1;" parent="TWPjQ4wS-LxRXgJV8Hlp-85" vertex="1">
          <mxGeometry y="50" width="160" height="70" as="geometry" />
        </mxCell>
        <mxCell id="TWPjQ4wS-LxRXgJV8Hlp-90" value="Режиссеер" style="swimlane;childLayout=stackLayout;horizontal=1;startSize=50;horizontalStack=0;rounded=1;fontSize=14;fontStyle=0;strokeWidth=2;resizeParent=0;resizeLast=1;shadow=0;dashed=0;align=center;arcSize=4;whiteSpace=wrap;html=1;" parent="1" vertex="1">
          <mxGeometry x="390" y="260" width="160" height="120" as="geometry" />
        </mxCell>
        <mxCell id="TWPjQ4wS-LxRXgJV8Hlp-91" value="ФИО режиссера" style="align=left;strokeColor=none;fillColor=none;spacingLeft=4;fontSize=12;verticalAlign=top;resizable=0;rotatable=0;part=1;html=1;" parent="TWPjQ4wS-LxRXgJV8Hlp-90" vertex="1">
          <mxGeometry y="50" width="160" height="70" as="geometry" />
        </mxCell>
        <mxCell id="aQkYtlhUBW1I7DdhKlqn-1" value="пользователь" style="swimlane;childLayout=stackLayout;horizontal=1;startSize=50;horizontalStack=0;rounded=1;fontSize=14;fontStyle=0;strokeWidth=2;resizeParent=0;resizeLast=1;shadow=0;dashed=0;align=center;arcSize=4;whiteSpace=wrap;html=1;" vertex="1" parent="1">
          <mxGeometry x="1230" y="600" width="160" height="120" as="geometry" />
        </mxCell>
        <mxCell id="aQkYtlhUBW1I7DdhKlqn-2" value="Имя" style="align=left;strokeColor=none;fillColor=none;spacingLeft=4;fontSize=12;verticalAlign=top;resizable=0;rotatable=0;part=1;html=1;" vertex="1" parent="aQkYtlhUBW1I7DdhKlqn-1">
          <mxGeometry y="50" width="160" height="70" as="geometry" />
        </mxCell>
        <mxCell id="aQkYtlhUBW1I7DdhKlqn-3" value="оценка" style="swimlane;childLayout=stackLayout;horizontal=1;startSize=50;horizontalStack=0;rounded=1;fontSize=14;fontStyle=0;strokeWidth=2;resizeParent=0;resizeLast=1;shadow=0;dashed=0;align=center;arcSize=4;whiteSpace=wrap;html=1;" vertex="1" parent="1">
          <mxGeometry x="1230" y="105" width="160" height="120" as="geometry" />
        </mxCell>
        <mxCell id="aQkYtlhUBW1I7DdhKlqn-4" value="число" style="align=left;strokeColor=none;fillColor=none;spacingLeft=4;fontSize=12;verticalAlign=top;resizable=0;rotatable=0;part=1;html=1;" vertex="1" parent="aQkYtlhUBW1I7DdhKlqn-3">
          <mxGeometry y="50" width="160" height="70" as="geometry" />
        </mxCell>
        <mxCell id="aQkYtlhUBW1I7DdhKlqn-5" value="Серия" style="swimlane;childLayout=stackLayout;horizontal=1;startSize=50;horizontalStack=0;rounded=1;fontSize=14;fontStyle=0;strokeWidth=2;resizeParent=0;resizeLast=1;shadow=0;dashed=0;align=center;arcSize=4;whiteSpace=wrap;html=1;" vertex="1" parent="1">
          <mxGeometry x="990" y="30" width="160" height="120" as="geometry" />
        </mxCell>
        <mxCell id="aQkYtlhUBW1I7DdhKlqn-6" value="Номер*&lt;br&gt;сюжет&lt;br&gt;дата выхода" style="align=left;strokeColor=none;fillColor=none;spacingLeft=4;fontSize=12;verticalAlign=top;resizable=0;rotatable=0;part=1;html=1;" vertex="1" parent="aQkYtlhUBW1I7DdhKlqn-5">
          <mxGeometry y="50" width="160" height="70" as="geometry" />
        </mxCell>
        <mxCell id="aQkYtlhUBW1I7DdhKlqn-7" value="Сезон" style="swimlane;childLayout=stackLayout;horizontal=1;startSize=50;horizontalStack=0;rounded=1;fontSize=14;fontStyle=0;strokeWidth=2;resizeParent=0;resizeLast=1;shadow=0;dashed=0;align=center;arcSize=4;whiteSpace=wrap;html=1;" vertex="1" parent="1">
          <mxGeometry x="670" y="10" width="160" height="120" as="geometry" />
        </mxCell>
        <mxCell id="aQkYtlhUBW1I7DdhKlqn-8" value="Номер*&lt;br&gt;сюжет&lt;br&gt;" style="align=left;strokeColor=none;fillColor=none;spacingLeft=4;fontSize=12;verticalAlign=top;resizable=0;rotatable=0;part=1;html=1;" vertex="1" parent="aQkYtlhUBW1I7DdhKlqn-7">
          <mxGeometry y="50" width="160" height="70" as="geometry" />
        </mxCell>
        <mxCell id="aQkYtlhUBW1I7DdhKlqn-10" value="" style="edgeStyle=orthogonalEdgeStyle;fontSize=12;html=1;endArrow=ERmany;startArrow=ERmany;rounded=0;entryX=0.5;entryY=1;entryDx=0;entryDy=0;exitX=0.5;exitY=0;exitDx=0;exitDy=0;" edge="1" parent="1" source="aQkYtlhUBW1I7DdhKlqn-26" target="aQkYtlhUBW1I7DdhKlqn-6">
          <mxGeometry width="100" height="100" relative="1" as="geometry">
            <mxPoint x="1070" y="450" as="sourcePoint" />
            <mxPoint x="780" y="340" as="targetPoint" />
            <Array as="points" />
          </mxGeometry>
        </mxCell>
        <mxCell id="aQkYtlhUBW1I7DdhKlqn-11" value="" style="edgeStyle=orthogonalEdgeStyle;fontSize=12;html=1;endArrow=ERmany;rounded=0;exitX=1;exitY=0.25;exitDx=0;exitDy=0;entryX=0;entryY=0;entryDx=0;entryDy=0;" edge="1" parent="1" source="aQkYtlhUBW1I7DdhKlqn-14" target="aQkYtlhUBW1I7DdhKlqn-8">
          <mxGeometry width="100" height="100" relative="1" as="geometry">
            <mxPoint x="350" y="70" as="sourcePoint" />
            <mxPoint x="550" y="100" as="targetPoint" />
            <Array as="points">
              <mxPoint x="629" y="65" />
              <mxPoint x="629" y="60" />
            </Array>
          </mxGeometry>
        </mxCell>
        <mxCell id="aQkYtlhUBW1I7DdhKlqn-14" value="Сериал" style="swimlane;childLayout=stackLayout;horizontal=1;startSize=50;horizontalStack=0;rounded=1;fontSize=14;fontStyle=0;strokeWidth=2;resizeParent=0;resizeLast=1;shadow=0;dashed=0;align=center;arcSize=4;whiteSpace=wrap;html=1;" vertex="1" parent="1">
          <mxGeometry x="130" y="30" width="180" height="140" as="geometry" />
        </mxCell>
        <mxCell id="aQkYtlhUBW1I7DdhKlqn-15" value="Название*&lt;br&gt;год начала выхода&lt;br&gt;год окончания выхода&lt;br&gt;количество сезонов&lt;br&gt;закончен" style="align=left;strokeColor=none;fillColor=none;spacingLeft=4;fontSize=12;verticalAlign=top;resizable=0;rotatable=0;part=1;html=1;" vertex="1" parent="aQkYtlhUBW1I7DdhKlqn-14">
          <mxGeometry y="50" width="180" height="90" as="geometry" />
        </mxCell>
        <mxCell id="aQkYtlhUBW1I7DdhKlqn-16" value="" style="edgeStyle=orthogonalEdgeStyle;fontSize=12;html=1;endArrow=ERmany;startArrow=ERmany;rounded=0;entryX=0;entryY=0.25;entryDx=0;entryDy=0;exitX=1;exitY=0;exitDx=0;exitDy=0;" edge="1" parent="1" source="aQkYtlhUBW1I7DdhKlqn-15" target="aQkYtlhUBW1I7DdhKlqn-26">
          <mxGeometry width="100" height="100" relative="1" as="geometry">
            <mxPoint x="680" y="420" as="sourcePoint" />
            <mxPoint x="980" y="495" as="targetPoint" />
            <Array as="points">
              <mxPoint x="610" y="80" />
              <mxPoint x="610" y="490" />
            </Array>
          </mxGeometry>
        </mxCell>
        <mxCell id="aQkYtlhUBW1I7DdhKlqn-17" value="" style="edgeStyle=entityRelationEdgeStyle;fontSize=12;html=1;endArrow=ERmany;startArrow=ERmany;rounded=0;entryX=1;entryY=0.75;entryDx=0;entryDy=0;exitX=1;exitY=0.25;exitDx=0;exitDy=0;" edge="1" parent="1" source="TWPjQ4wS-LxRXgJV8Hlp-86" target="aQkYtlhUBW1I7DdhKlqn-15">
          <mxGeometry width="100" height="100" relative="1" as="geometry">
            <mxPoint x="680" y="420" as="sourcePoint" />
            <mxPoint x="780" y="320" as="targetPoint" />
          </mxGeometry>
        </mxCell>
        <mxCell id="aQkYtlhUBW1I7DdhKlqn-18" value="" style="edgeStyle=orthogonalEdgeStyle;fontSize=12;html=1;endArrow=ERmany;startArrow=ERmany;rounded=0;entryX=1.006;entryY=0.411;entryDx=0;entryDy=0;entryPerimeter=0;exitX=0.5;exitY=0;exitDx=0;exitDy=0;" edge="1" parent="1" source="TWPjQ4wS-LxRXgJV8Hlp-90" target="aQkYtlhUBW1I7DdhKlqn-15">
          <mxGeometry width="100" height="100" relative="1" as="geometry">
            <mxPoint x="680" y="420" as="sourcePoint" />
            <mxPoint x="780" y="320" as="targetPoint" />
            <Array as="points">
              <mxPoint x="470" y="117" />
            </Array>
          </mxGeometry>
        </mxCell>
        <mxCell id="aQkYtlhUBW1I7DdhKlqn-19" value="" style="edgeStyle=orthogonalEdgeStyle;fontSize=12;html=1;endArrow=ERoneToMany;rounded=0;entryX=0.5;entryY=0;entryDx=0;entryDy=0;exitX=0.5;exitY=1;exitDx=0;exitDy=0;" edge="1" parent="1" source="aQkYtlhUBW1I7DdhKlqn-4" target="aQkYtlhUBW1I7DdhKlqn-1">
          <mxGeometry width="100" height="100" relative="1" as="geometry">
            <mxPoint x="680" y="420" as="sourcePoint" />
            <mxPoint x="780" y="320" as="targetPoint" />
          </mxGeometry>
        </mxCell>
        <mxCell id="aQkYtlhUBW1I7DdhKlqn-20" value="оценка" style="swimlane;childLayout=stackLayout;horizontal=1;startSize=50;horizontalStack=0;rounded=1;fontSize=14;fontStyle=0;strokeWidth=2;resizeParent=0;resizeLast=1;shadow=0;dashed=0;align=center;arcSize=4;whiteSpace=wrap;html=1;" vertex="1" parent="1">
          <mxGeometry x="340" y="600" width="160" height="120" as="geometry" />
        </mxCell>
        <mxCell id="aQkYtlhUBW1I7DdhKlqn-21" value="число" style="align=left;strokeColor=none;fillColor=none;spacingLeft=4;fontSize=12;verticalAlign=top;resizable=0;rotatable=0;part=1;html=1;" vertex="1" parent="aQkYtlhUBW1I7DdhKlqn-20">
          <mxGeometry y="50" width="160" height="70" as="geometry" />
        </mxCell>
        <mxCell id="aQkYtlhUBW1I7DdhKlqn-22" value="" style="edgeStyle=entityRelationEdgeStyle;fontSize=12;html=1;endArrow=ERmany;startArrow=ERmany;rounded=0;exitX=1;exitY=0.5;exitDx=0;exitDy=0;entryX=0;entryY=0.5;entryDx=0;entryDy=0;" edge="1" parent="1" source="TWPjQ4wS-LxRXgJV8Hlp-80" target="aQkYtlhUBW1I7DdhKlqn-27">
          <mxGeometry width="100" height="100" relative="1" as="geometry">
            <mxPoint x="680" y="420" as="sourcePoint" />
            <mxPoint x="980" y="555" as="targetPoint" />
          </mxGeometry>
        </mxCell>
        <mxCell id="aQkYtlhUBW1I7DdhKlqn-23" value="" style="edgeStyle=orthogonalEdgeStyle;fontSize=12;html=1;endArrow=ERoneToMany;rounded=0;entryX=0.5;entryY=0;entryDx=0;entryDy=0;exitX=1;exitY=0.25;exitDx=0;exitDy=0;" edge="1" parent="1" source="aQkYtlhUBW1I7DdhKlqn-5" target="aQkYtlhUBW1I7DdhKlqn-3">
          <mxGeometry width="100" height="100" relative="1" as="geometry">
            <mxPoint x="680" y="420" as="sourcePoint" />
            <mxPoint x="780" y="320" as="targetPoint" />
          </mxGeometry>
        </mxCell>
        <mxCell id="aQkYtlhUBW1I7DdhKlqn-24" value="" style="edgeStyle=orthogonalEdgeStyle;fontSize=12;html=1;endArrow=ERoneToMany;rounded=0;exitX=0;exitY=0.25;exitDx=0;exitDy=0;entryX=0;entryY=0.25;entryDx=0;entryDy=0;" edge="1" parent="1" source="aQkYtlhUBW1I7DdhKlqn-14" target="aQkYtlhUBW1I7DdhKlqn-20">
          <mxGeometry width="100" height="100" relative="1" as="geometry">
            <mxPoint x="680" y="420" as="sourcePoint" />
            <mxPoint x="770" y="370" as="targetPoint" />
            <Array as="points">
              <mxPoint x="10" y="65" />
              <mxPoint x="10" y="630" />
            </Array>
          </mxGeometry>
        </mxCell>
        <mxCell id="aQkYtlhUBW1I7DdhKlqn-25" value="" style="edgeStyle=entityRelationEdgeStyle;fontSize=12;html=1;endArrow=ERoneToMany;rounded=0;exitX=1;exitY=0.25;exitDx=0;exitDy=0;entryX=0;entryY=0.25;entryDx=0;entryDy=0;" edge="1" parent="1" source="aQkYtlhUBW1I7DdhKlqn-20" target="aQkYtlhUBW1I7DdhKlqn-1">
          <mxGeometry width="100" height="100" relative="1" as="geometry">
            <mxPoint x="680" y="420" as="sourcePoint" />
            <mxPoint x="780" y="320" as="targetPoint" />
          </mxGeometry>
        </mxCell>
        <mxCell id="aQkYtlhUBW1I7DdhKlqn-26" value="Актер" style="swimlane;childLayout=stackLayout;horizontal=1;startSize=50;horizontalStack=0;rounded=1;fontSize=14;fontStyle=0;strokeWidth=2;resizeParent=0;resizeLast=1;shadow=0;dashed=0;align=center;arcSize=4;whiteSpace=wrap;html=1;" vertex="1" parent="1">
          <mxGeometry x="990" y="460" width="160" height="120" as="geometry" />
        </mxCell>
        <mxCell id="aQkYtlhUBW1I7DdhKlqn-27" value="ФИО*&lt;br&gt;дата рождения&lt;br&gt;дата смерти&lt;br&gt;" style="align=left;strokeColor=none;fillColor=none;spacingLeft=4;fontSize=12;verticalAlign=top;resizable=0;rotatable=0;part=1;html=1;" vertex="1" parent="aQkYtlhUBW1I7DdhKlqn-26">
          <mxGeometry y="50" width="160" height="70" as="geometry" />
        </mxCell>
      </root>
    </mxGraphModel>
  </diagram>
</mxfile>
